<svg width="93" height="16" viewBox="0 0 93 16" xmlns="http://www.w3.org/2000/svg">
<g clip-path="url(#clip0_6245_10430)">
<path d="M8.21009 16.004C12.6295 16.004 16.2121 12.4214 16.2121 8.00198C16.2121 3.58261 12.6295 0 8.21009 0C3.79071 0 0.208099 3.58261 0.208099 8.00198C0.208099 12.4214 3.79071 16.004 8.21009 16.004Z" fill="#64748B"/>
<path d="M17.8755 16.004C22.2949 16.004 25.8775 12.4214 25.8775 8.00198C25.8775 3.58261 22.2949 0 17.8755 0C13.4561 0 9.8735 3.58261 9.8735 8.00198C9.8735 12.4214 13.4561 16.004 17.8755 16.004Z" fill="#CBD5E1"/>
<path d="M13.0408 1.61157C14.9675 3.07156 16.2081 5.3852 16.2081 7.98604C16.2081 10.5869 14.9675 12.9045 13.0408 14.3645C11.1141 12.9045 9.8735 10.5909 9.8735 7.98604C9.8735 5.38121 11.1181 3.07156 13.0408 1.61157Z" fill="#E2E8F0"/>
<path d="M25.3789 13.3154V13.3832H25.2313V13.7662H25.1595V13.3832H25.0119V13.3154H25.3789ZM25.9413 13.3154V13.7662H25.8695V13.3952L25.7379 13.7223H25.6581L25.5265 13.3992V13.7662H25.4547V13.3154H25.5664L25.698 13.6385L25.8296 13.3154H25.9413Z" fill="#CBD5E1"/>
<path d="M92.0714 8.26924V8.33706H91.9239V8.72H91.8521V8.33706H91.7045V8.26924H92.0714ZM92.6299 8.26924V8.72H92.5581V8.34902L92.4265 8.67613H92.3507L92.2191 8.35301V8.72H92.1472V8.26924H92.2589L92.3906 8.59236L92.5222 8.26924H92.6299ZM37.4018 3.20716C38.6264 3.20716 39.4921 4.04885 39.4921 5.25354V8.48465H38.3632V5.62452C38.3632 4.7589 37.9164 4.27622 37.1665 4.27622C36.4405 4.27622 35.8341 4.75491 35.8341 5.63648V8.48864H34.7052V5.62851C34.7052 4.76289 34.2585 4.28021 33.5085 4.28021C32.7825 4.28021 32.1762 4.7589 32.1762 5.64047V8.49263H31.0473V3.34678H32.1642V3.97306C32.5791 3.36673 33.2173 3.21115 33.7439 3.21115C34.5297 3.21115 35.168 3.5582 35.523 4.12863C35.9697 3.38667 36.7636 3.20716 37.4018 3.20716ZM46.042 3.3388V8.48465H44.9211V7.86635C44.5661 8.3211 44.0356 8.61629 43.3056 8.61629C41.8655 8.61629 40.7327 7.48341 40.7327 5.91173C40.7327 4.34005 41.8655 3.20716 43.3056 3.20716C44.0356 3.20716 44.5661 3.50634 44.9211 3.96508V3.3388H46.042ZM43.4372 4.26426C42.4719 4.26426 41.8855 5.01021 41.8855 5.91173C41.8855 6.81325 42.4719 7.5592 43.4372 7.5592C44.3667 7.5592 44.9889 6.84915 44.9889 5.91173C44.9889 4.97431 44.3667 4.26426 43.4372 4.26426ZM51.6905 3.75366L51.2078 4.62726C50.8967 4.43579 50.2584 4.18847 49.6202 4.18847C49.0099 4.18847 48.6469 4.43579 48.6469 4.79879C48.6469 5.1578 49.0219 5.26152 49.4965 5.32933L50.0271 5.40911C51.148 5.56867 51.8142 6.04735 51.8142 6.92893C51.8142 7.91821 50.9565 8.60831 49.4726 8.60831C48.9421 8.60831 48.0166 8.5046 47.2667 7.94613L47.7892 7.10445C48.1602 7.38767 48.6469 7.631 49.4846 7.631C50.2505 7.631 50.6534 7.38767 50.6534 7.00472C50.6534 6.71352 50.3741 6.52205 49.7638 6.43429L49.2253 6.36648C48.0884 6.2109 47.4821 5.68435 47.4821 4.85862C47.4821 3.83743 48.2998 3.21115 49.6082 3.21115C50.414 3.21115 51.16 3.41061 51.6905 3.75366ZM56.5452 3.3388V4.35999H54.5746V6.59784C54.5746 7.29193 54.9416 7.5592 55.3923 7.5592C55.7394 7.5592 56.1223 7.40362 56.4295 7.21215L56.8762 8.10968C56.4614 8.38892 55.9428 8.62028 55.2966 8.62028C54.1318 8.62028 53.4497 7.994 53.4497 6.62177V4.35999H52.4245V3.3388H53.4497V1.78308H54.5786V3.3388H56.5452ZM60.0076 3.20716C61.4477 3.20716 62.433 4.30415 62.4409 5.90774C62.4409 6.05134 62.429 6.19894 62.421 6.32659H58.6195C58.771 7.25204 59.4212 7.63499 60.1512 7.63499C60.6658 7.63499 61.2163 7.43155 61.6392 7.09248L62.1976 7.89428C61.5713 8.43279 60.8613 8.62028 60.0834 8.62028C58.5437 8.62028 57.4507 7.54723 57.4507 5.91572C57.4467 4.30016 58.4958 3.20716 60.0076 3.20716ZM59.9877 4.20442C59.1859 4.20442 58.7431 4.71901 58.6234 5.47293H61.2921C61.1684 4.67114 60.7017 4.20442 59.9877 4.20442ZM66.3382 3.20716C66.6813 3.20716 66.9446 3.25104 67.2038 3.35077L66.9366 4.46371C66.7012 4.34005 66.3582 4.27622 66.0829 4.27622C65.3689 4.27622 64.8583 4.78283 64.8583 5.65643V8.48465H63.7374V3.3388H64.8503V3.91721C65.1854 3.43055 65.712 3.20716 66.3382 3.20716ZM70.9854 3.20716C72.4255 3.20716 73.5584 4.34005 73.5584 5.91173C73.5584 7.48341 72.4255 8.61629 70.9854 8.61629C70.2555 8.61629 69.7289 8.3211 69.3739 7.87034V10.6307H68.253V3.3388H69.3739V3.94912C69.7289 3.50235 70.2555 3.20716 70.9854 3.20716ZM70.8498 4.26426C69.9204 4.26426 69.2981 4.97431 69.2981 5.91173C69.2981 6.84915 69.9204 7.5592 70.8498 7.5592C71.8152 7.5592 72.4016 6.81325 72.4016 5.91173C72.4016 5.01021 71.8152 4.26426 70.8498 4.26426ZM79.7892 3.3388V8.48465H78.6683V7.86635C78.3133 8.3211 77.7828 8.61629 77.0528 8.61629C75.6127 8.61629 74.4798 7.48341 74.4798 5.91173C74.4798 4.34005 75.6127 3.20716 77.0528 3.20716C77.7828 3.20716 78.3133 3.50634 78.6683 3.96508V3.3388H79.7892ZM77.1844 4.26426C76.2191 4.26426 75.6327 5.01021 75.6327 5.91173C75.6327 6.81325 76.2191 7.5592 77.1844 7.5592C78.1138 7.5592 78.7361 6.84915 78.7361 5.91173C78.7361 4.97431 78.1138 4.26426 77.1844 4.26426ZM85.4377 3.75366L84.955 4.62726C84.6439 4.43579 84.0056 4.18847 83.3674 4.18847C82.7571 4.18847 82.3941 4.43579 82.3941 4.79879C82.3941 5.1578 82.769 5.26152 83.2437 5.32933L83.7743 5.40911C84.8952 5.56867 85.5614 6.04735 85.5614 6.92893C85.5614 7.91821 84.7037 8.60831 83.2198 8.60831C82.6893 8.60831 81.7638 8.5046 81.0139 7.94613L81.5364 7.10445C81.9074 7.38767 82.3941 7.631 83.2318 7.631C83.9977 7.631 84.4006 7.38767 84.4006 7.00472C84.4006 6.71352 84.1213 6.52205 83.511 6.43429L82.9725 6.36648C81.8356 6.2109 81.2293 5.68435 81.2293 4.85862C81.2293 3.83743 82.047 3.21115 83.3554 3.21115C84.1612 3.21115 84.9072 3.41061 85.4377 3.75366ZM90.771 3.75366L90.2884 4.62726C89.9772 4.43579 89.339 4.18847 88.7007 4.18847C88.0904 4.18847 87.7274 4.43579 87.7274 4.79879C87.7274 5.1578 88.1024 5.26152 88.5771 5.32933L89.1076 5.40911C90.2285 5.56867 90.8947 6.04735 90.8947 6.92893C90.8947 7.91821 90.037 8.60831 88.5531 8.60831C88.0226 8.60831 87.0971 8.5046 86.3472 7.94613L86.8698 7.10445C87.2407 7.38767 87.7274 7.631 88.5651 7.631C89.331 7.631 89.7339 7.38767 89.7339 7.00472C89.7339 6.71352 89.4547 6.52205 88.8443 6.43429L88.3058 6.36648C87.1689 6.2109 86.5626 5.68435 86.5626 4.85862C86.5626 3.83743 87.3804 3.21115 88.6888 3.21115C89.4945 3.21115 90.2405 3.41061 90.771 3.75366ZM32.4075 11.265C33.0857 11.265 33.6162 11.7955 33.6162 12.5375C33.6162 13.2795 33.0857 13.81 32.4075 13.81C32.0645 13.81 31.8172 13.6704 31.6496 13.459V13.7462H31.1231V10.1122H31.6496V11.616C31.8132 11.4046 32.0645 11.265 32.4075 11.265ZM32.3437 11.7636C31.9089 11.7636 31.6137 12.0987 31.6137 12.5375C31.6137 12.9763 31.9049 13.3114 32.3437 13.3114C32.7985 13.3114 33.0737 12.9603 33.0737 12.5375C33.0737 12.1147 32.7985 11.7636 32.3437 11.7636ZM36.4245 11.3288L34.5138 14.7714H33.9274L34.793 13.2515L33.7239 11.3288H34.3143L35.0922 12.717L35.8421 11.3288H36.4245ZM40.9201 11.265C41.4946 11.265 41.9014 11.6599 41.9014 12.2264V13.7462H41.3709V12.4019C41.3709 11.995 41.1595 11.7676 40.8084 11.7676C40.4694 11.7676 40.1822 11.991 40.1822 12.4059V13.7462H39.6516V12.4019C39.6516 11.995 39.4442 11.7676 39.0892 11.7676C38.7501 11.7676 38.4629 11.991 38.4629 12.4059V13.7462H37.9324V11.3288H38.4589V11.624C38.6544 11.3368 38.9535 11.265 39.2009 11.265C39.5679 11.265 39.871 11.4286 40.0346 11.6958C40.246 11.3528 40.621 11.265 40.9201 11.265ZM44.9291 11.3288V13.7462H44.4026V13.455C44.235 13.6704 43.9877 13.81 43.6446 13.81C42.9665 13.81 42.436 13.2795 42.436 12.5375C42.436 11.7955 42.9705 11.265 43.6446 11.265C43.9877 11.265 44.239 11.4046 44.4026 11.62V11.3288H44.9291ZM43.7045 11.7636C43.2497 11.7636 42.9745 12.1147 42.9745 12.5375C42.9745 12.9603 43.2497 13.3114 43.7045 13.3114C44.1393 13.3114 44.4345 12.9763 44.4345 12.5375C44.4345 12.0947 44.1433 11.7636 43.7045 11.7636ZM47.5339 11.5243L47.3066 11.9352C47.159 11.8434 46.8598 11.7277 46.5606 11.7277C46.2734 11.7277 46.1019 11.8434 46.1019 12.0149C46.1019 12.1825 46.2774 12.2304 46.5008 12.2663L46.7521 12.3061C47.2786 12.3819 47.5938 12.6053 47.5938 13.0202C47.5938 13.4829 47.1909 13.81 46.4928 13.81C46.2415 13.81 45.8107 13.7621 45.4557 13.4989L45.699 13.1039C45.8745 13.2396 46.1019 13.3513 46.4968 13.3513C46.8558 13.3513 47.0473 13.2396 47.0473 13.0561C47.0473 12.9205 46.9156 12.8287 46.6284 12.7888L46.3771 12.7569C45.8426 12.6851 45.5554 12.4378 45.5554 12.0469C45.5554 11.5682 45.9383 11.273 46.5566 11.273C46.9316 11.269 47.2826 11.3607 47.5339 11.5243ZM49.7638 11.3288V11.8075H48.8384V12.8606C48.8384 13.1877 49.0099 13.3114 49.2213 13.3114C49.3849 13.3114 49.5644 13.2396 49.708 13.1478L49.9154 13.5707C49.7199 13.7023 49.4766 13.81 49.1734 13.81C48.6269 13.81 48.3038 13.5148 48.3038 12.8726V11.8075H47.8212V11.3288H48.3038V10.5988H48.8344V11.3288H49.7638ZM51.3395 11.265C52.0176 11.265 52.4803 11.7796 52.4843 12.5335C52.4843 12.6013 52.4803 12.6691 52.4724 12.729H50.6853C50.7571 13.1638 51.0602 13.3433 51.4033 13.3433C51.6466 13.3433 51.9019 13.2476 52.1014 13.088L52.3647 13.463C52.0695 13.7143 51.7344 13.802 51.3714 13.802C50.6454 13.802 50.1348 13.2954 50.1348 12.5295C50.1388 11.7796 50.6294 11.265 51.3395 11.265ZM51.3315 11.7357C50.9565 11.7357 50.7451 11.979 50.6893 12.3301H51.9418C51.886 11.9551 51.6666 11.7357 51.3315 11.7357ZM54.2634 11.265C54.423 11.265 54.5467 11.285 54.6703 11.3328L54.5427 11.8554C54.431 11.7955 54.2714 11.7676 54.1398 11.7676C53.8047 11.7676 53.5654 12.003 53.5654 12.4178V13.7462H53.0388V11.3288H53.5614V11.6001C53.7209 11.3727 53.9682 11.265 54.2634 11.265ZM56.1104 11.265C56.4694 11.265 56.8005 11.3966 57.0119 11.6519L56.6728 12.011C56.5053 11.8514 56.3258 11.7596 56.0904 11.7596C55.6835 11.7596 55.3764 12.0788 55.3764 12.5335C55.3764 12.9883 55.6835 13.3074 56.0904 13.3074C56.3218 13.3074 56.5292 13.1997 56.6848 13.0561L57.0119 13.4191C56.7925 13.6744 56.4694 13.806 56.1104 13.806C55.3405 13.806 54.8379 13.2595 54.8379 12.5335C54.8379 11.8115 55.3405 11.265 56.1104 11.265ZM59.7763 11.3288V13.7462H59.2497V13.455C59.0822 13.6704 58.8349 13.81 58.4918 13.81C57.8137 13.81 57.2831 13.2795 57.2831 12.5375C57.2831 11.7955 57.8137 11.265 58.4918 11.265C58.8349 11.265 59.0862 11.4046 59.2497 11.62V11.3288H59.7763ZM58.5556 11.7636C58.1009 11.7636 57.8256 12.1147 57.8256 12.5375C57.8256 12.9603 58.1009 13.3114 58.5556 13.3114C58.9904 13.3114 59.2856 12.9763 59.2856 12.5375C59.2816 12.0947 58.9904 11.7636 58.5556 11.7636ZM61.7349 11.265C61.8944 11.265 62.0181 11.285 62.1418 11.3328L62.0141 11.8554C61.9024 11.7955 61.7429 11.7676 61.6112 11.7676C61.2762 11.7676 61.0368 12.003 61.0368 12.4178V13.7462H60.5103V11.3288H61.0328V11.6001C61.1884 11.3727 61.4357 11.265 61.7349 11.265ZM63.6137 11.265C63.9568 11.265 64.2081 11.4046 64.3716 11.62V10.1122H64.8982V13.7462H64.3716V13.455C64.2041 13.6704 63.9568 13.81 63.6137 13.81C62.9356 13.81 62.405 13.2795 62.405 12.5375C62.405 11.7955 62.9396 11.265 63.6137 11.265ZM63.6775 11.7636C63.2228 11.7636 62.9476 12.1147 62.9476 12.5375C62.9476 12.9603 63.2228 13.3114 63.6775 13.3114C64.1123 13.3114 64.4075 12.9763 64.4075 12.5375C64.4075 12.0947 64.1163 11.7636 63.6775 11.7636Z" fill="#94A3B8"/>
</g>
<defs>
<clipPath id="clip0_6245_10430">
<rect width="92.4218" height="16" fill="white" transform="translate(0.208099)"/>
</clipPath>
</defs>
</svg>
