<svg width="68" height="24" viewBox="0 0 68 24" fill="none" xmlns="http://www.w3.org/2000/svg">
<g clip-path="url(#clip0)">
<path fill-rule="evenodd" clip-rule="evenodd" d="M63.438 9.43297C63.438 8.70739 64.0107 8.11576 64.698 8.11576C65.4038 8.11576 65.9575 8.70739 65.9575 9.43297C65.9575 10.1582 65.4038 10.7498 64.698 10.7498C64.0107 10.7688 63.438 10.1772 63.438 9.43297ZM64.698 10.4633C65.2323 10.4633 65.6524 10.0052 65.6524 9.45194C65.6524 8.89827 65.2133 8.44023 64.698 8.44023C64.1633 8.44023 63.7432 8.89827 63.7432 9.45194C63.7432 10.0052 64.1633 10.4633 64.698 10.4633ZM64.526 10.0246H64.2589V8.86032H64.7359C64.8315 8.86032 64.9461 8.86031 65.0224 8.91762C65.1177 8.97492 65.156 9.08916 65.156 9.20376C65.156 9.33734 65.0797 9.45195 64.9651 9.4899L65.175 10.0052H64.8888L64.7169 9.5472H64.526V10.0246ZM64.526 9.37566H64.679C64.7359 9.37566 64.7932 9.37566 64.8315 9.35669C64.8695 9.33734 64.8888 9.28004 64.8888 9.22274C64.8888 9.18479 64.8695 9.12748 64.8315 9.1085C64.7932 9.08915 64.7169 9.08915 64.679 9.08915H64.545L64.526 9.37566Z" fill="#94A3B8"/>
<path fill-rule="evenodd" clip-rule="evenodd" d="M45.4009 0.633677L45.0571 2.88597C44.3129 2.48522 43.7592 2.3323 43.1676 2.3323C41.6026 2.3323 40.4956 3.93563 40.4956 6.20726C40.4956 7.77228 41.2398 8.72671 42.4614 8.72671C42.9767 8.72671 43.5494 8.5548 44.2556 8.19201L43.8928 10.5589C43.1103 10.7881 42.6139 10.8644 42.0223 10.8644C39.751 10.8644 38.3386 9.14643 38.3386 6.39777C38.3386 2.69508 40.2854 0.0989933 43.0913 0.0989933C43.4537 0.0989933 43.7786 0.137321 44.0457 0.213601L44.9235 0.442798C45.1527 0.538054 45.21 0.557398 45.4009 0.633677Z" fill="#94A3B8"/>
<path fill-rule="evenodd" clip-rule="evenodd" d="M38.3958 2.17988C38.3385 2.1609 38.2623 2.16089 38.186 2.16089C37.4987 2.16089 37.098 2.52332 36.449 3.53504L36.6396 2.25615H34.7311L33.4332 10.6736H35.5519C36.3155 5.52016 36.506 4.64201 37.5177 4.64201C37.575 4.64201 37.594 4.64201 37.6703 4.64201C37.8611 3.63067 38.1093 2.8861 38.4721 2.19885L38.3958 2.17988Z" fill="#94A3B8"/>
<path fill-rule="evenodd" clip-rule="evenodd" d="M25.7793 10.5588C25.2067 10.7497 24.7486 10.8449 24.2712 10.8449C23.2026 10.8449 22.611 10.196 22.611 8.99375C22.611 8.76454 22.6299 8.49737 22.6683 8.23021L22.8015 7.40937L22.8971 6.74148L23.8132 0.995982H25.9129L25.6647 2.23692H26.7527L26.4472 4.27932L25.3782 4.27896L24.8249 7.79114C24.8059 7.9437 24.7866 8.05831 24.7866 8.13459C24.7866 8.57366 25.0158 8.76454 25.5122 8.76454C25.76 8.76454 25.9319 8.74556 26.0844 8.68826L25.7793 10.5588Z" fill="#94A3B8"/>
<path fill-rule="evenodd" clip-rule="evenodd" d="M17.4571 4.90915C17.4571 5.97818 17.9534 6.70338 19.0604 7.25705C19.9002 7.67677 20.0532 7.81035 20.0532 8.19212C20.0532 8.70747 19.6714 8.95565 18.8506 8.95565C18.2206 8.95565 17.648 8.8604 16.9611 8.61221L16.6746 10.559L16.7702 10.5784L17.152 10.6546C17.2855 10.6736 17.4571 10.7116 17.7053 10.7309C18.2016 10.7689 18.6024 10.8072 18.8695 10.8072C21.0839 10.8072 22.1146 9.91008 22.1146 8.00124C22.1146 6.85594 21.6945 6.16905 20.6258 5.6537C19.7477 5.23361 19.6524 5.13835 19.6524 4.7376C19.6524 4.27919 19.9959 4.05036 20.6827 4.05036C21.1028 4.05036 21.6565 4.10766 22.1908 4.18393L22.4963 2.23715C21.9427 2.14152 21.1222 2.06524 20.6448 2.06524C18.2589 2.06524 17.4381 3.34413 17.4571 4.90915Z" fill="#94A3B8"/>
<path fill-rule="evenodd" clip-rule="evenodd" d="M62.2165 10.6544H60.2124L60.3077 9.83355C59.7354 10.4825 59.1244 10.7686 58.3609 10.7686C56.8148 10.7686 55.8031 9.3755 55.8031 7.27578C55.8031 4.46983 57.3685 2.10331 59.239 2.10331C60.0595 2.10331 60.6704 2.46573 61.2621 3.24824L61.7201 0.289737H63.8009L62.2165 10.6544ZM59.1054 8.68825C60.0978 8.68825 60.785 7.52396 60.785 5.84433C60.785 4.77531 60.3843 4.18369 59.6587 4.18369C58.7043 4.18369 58.0174 5.36732 58.0174 7.00862C58.0174 8.1156 58.3798 8.68825 59.1054 8.68825Z" fill="#94A3B8"/>
<path fill-rule="evenodd" clip-rule="evenodd" d="M32.4595 10.4825C31.7343 10.7114 31.0474 10.826 30.2838 10.826C27.9359 10.826 26.6954 9.52813 26.6954 7.04701C26.6954 4.14543 28.2604 2.02711 30.3791 2.02711C32.116 2.02711 33.2234 3.22934 33.2234 5.09985C33.2234 5.71083 33.1467 6.32143 32.9558 7.18059H28.7568C28.7378 7.31418 28.7378 7.37148 28.7378 7.44776C28.7378 8.44013 29.3677 8.9365 30.5893 8.9365C31.3335 8.9365 32.0208 8.7646 32.7843 8.40218L32.4595 10.4825ZM31.2762 5.46264C31.2956 5.29074 31.2956 5.13818 31.2956 5.04255C31.2956 4.35529 30.9328 3.95492 30.3028 3.95492C29.6349 3.95492 29.1575 4.48925 28.9666 5.46264H31.2762Z" fill="#94A3B8"/>
<path fill-rule="evenodd" clip-rule="evenodd" d="M8.98267 10.6545H6.88295L8.08555 2.69504L5.37523 10.6545H3.94342L3.77188 2.75235L2.493 10.6545H0.526855L2.16853 0.309176H5.20332L5.2796 6.7222L7.34099 0.309176H10.624L8.98267 10.6545Z" fill="#94A3B8"/>
<path fill-rule="evenodd" clip-rule="evenodd" d="M14.4222 6.91293C14.1934 6.89395 14.0978 6.87498 13.9452 6.87498C12.7426 6.87498 12.151 7.31404 12.151 8.15386C12.151 8.6692 12.4565 9.01265 12.9145 9.01265C13.7543 9.01265 14.3843 8.15386 14.4222 6.91293ZM15.9493 10.6543H14.1934L14.2314 9.77618C13.697 10.4824 12.9908 10.7879 12.0174 10.7879C10.8721 10.7879 10.0896 9.85247 10.0896 8.49731C10.0896 6.43591 11.4637 5.25265 13.7927 5.25265C14.0405 5.25265 14.346 5.27163 14.6515 5.30995C14.7088 5.02344 14.7277 4.90884 14.7277 4.75628C14.7277 4.20261 14.3653 3.99275 13.3726 3.99275C12.7809 3.99275 12.0937 4.088 11.6163 4.24093L11.3495 4.33619L11.1586 4.39349L11.4448 2.50399C12.4944 2.17953 13.2007 2.04596 13.9642 2.04596C15.7774 2.04596 16.7318 2.90475 16.7318 4.5081C16.7318 4.92819 16.6935 5.23367 16.5599 6.18771L16.1402 9.18456L16.0639 9.71888L16.0066 10.1386L15.9687 10.4441L15.9493 10.6543Z" fill="#94A3B8"/>
<path fill-rule="evenodd" clip-rule="evenodd" d="M49.0463 6.91293C48.8364 6.89395 48.7222 6.87498 48.5692 6.87498C47.3666 6.87498 46.756 7.31404 46.756 8.15386C46.756 8.6692 47.0615 9.01265 47.5196 9.01265C48.3784 9.01265 49.0083 8.15386 49.0463 6.91293ZM50.5733 10.6543H48.8174L48.8558 9.77618C48.3211 10.4824 47.6148 10.7879 46.6414 10.7879C45.4961 10.7879 44.7136 9.85247 44.7136 8.49731C44.7136 6.43591 46.0881 5.25265 48.4163 5.25265C48.6455 5.25265 48.97 5.27163 49.2755 5.30995C49.3328 5.02344 49.3518 4.90884 49.3518 4.75628C49.3518 4.20261 48.9893 3.99275 47.9966 3.99275C47.405 3.99275 46.7177 4.088 46.2407 4.24093L45.9352 4.3172L45.7443 4.3745L46.0308 2.48502C47.0805 2.16056 47.7867 2.02698 48.5503 2.02698C50.3635 2.02698 51.3179 2.88576 51.3179 4.48911C51.3179 4.90883 51.2796 5.21433 51.146 6.16874L50.7069 9.14623L50.6496 9.68093L50.5927 10.1006L50.5544 10.3872L50.5733 10.6543Z" fill="#94A3B8"/>
<path fill-rule="evenodd" clip-rule="evenodd" d="M56.4714 2.17988C56.4141 2.1609 56.3378 2.16089 56.2615 2.16089C55.5743 2.16089 55.1732 2.52332 54.5242 3.53504L54.7155 2.25615H52.8067L51.5088 10.6736H53.6275C54.3907 5.52016 54.5815 4.64201 55.5933 4.64201C55.6506 4.64201 55.6506 4.64201 55.7462 4.64201C55.9367 3.63067 56.2042 2.8861 56.5477 2.19885L56.4714 2.17988Z" fill="#94A3B8"/>
<path fill-rule="evenodd" clip-rule="evenodd" d="M47.6148 18.8429C47.6148 20.7518 47.0232 21.8777 46.0881 21.8777C45.4009 21.8967 44.9997 21.1332 44.9997 20.0072C44.9997 18.671 45.6107 17.1443 46.5651 17.1443C47.3477 17.1443 47.6148 17.9648 47.6148 18.8429ZM49.6956 18.8619C49.6956 16.7432 48.6455 15.0826 46.6797 15.0826C44.4081 15.0826 42.9387 17.087 42.9387 20.0452C42.9387 22.1642 43.8165 23.9012 45.9542 23.9012C48.1112 23.9012 49.6956 22.3741 49.6956 18.8619Z" fill="#E2E8F0"/>
<path fill-rule="evenodd" clip-rule="evenodd" d="M43.6067 13.6124L43.2822 15.8647C42.576 15.4644 42.0796 15.3114 41.5263 15.3114C40.0565 15.3114 39.0258 16.9148 39.0258 19.186C39.0258 20.751 39.7127 21.7055 40.858 21.7055C41.3544 21.7055 41.8887 21.5339 42.5376 21.1711L42.1942 23.538C41.469 23.7672 40.9916 23.8431 40.4383 23.8431C38.3196 23.8431 36.9834 22.1256 36.9834 19.3769C36.9834 15.6742 38.8156 13.0781 41.4307 13.0781C41.7741 13.0781 42.0606 13.1164 42.3088 13.1927L43.1103 13.4216C43.3774 13.4982 43.4347 13.5172 43.6067 13.6124Z" fill="#E2E8F0"/>
<path fill-rule="evenodd" clip-rule="evenodd" d="M30.57 15.1399C30.5127 15.1209 30.4364 15.1209 30.3601 15.1209C29.7112 15.1209 29.3484 15.4837 28.7378 16.4951L28.9287 15.2162H27.1534L25.9508 23.6337H27.9169C28.6232 18.4802 28.8141 17.602 29.7495 17.602C29.8064 17.602 29.8064 17.602 29.9021 17.6214C30.0736 16.6097 30.3222 15.8651 30.6462 15.1782L30.57 15.1399Z" fill="#E2E8F0"/>
<path fill-rule="evenodd" clip-rule="evenodd" d="M56.2995 23.5573H54.429L54.5243 22.7364C53.9899 23.3854 53.4173 23.6719 52.6921 23.6719C51.2603 23.6719 50.3062 22.2784 50.3062 20.179C50.3062 17.3731 51.776 15.0062 53.5129 15.0062C54.2764 15.0062 54.8681 15.369 55.4024 16.1705L55.8415 13.212H57.7883L56.2995 23.5573ZM53.3793 21.5722C54.3144 21.5722 54.9443 20.4079 54.9443 18.7283C54.9443 17.6592 54.5816 17.0869 53.8947 17.0869C52.9976 17.0869 52.3676 18.2512 52.3676 19.9115C52.3676 21.0185 52.711 21.5722 53.3793 21.5722Z" fill="#E2E8F0"/>
<path fill-rule="evenodd" clip-rule="evenodd" d="M12.0937 23.5186C11.4258 23.7478 10.7769 23.8624 10.0706 23.8624C7.87565 23.8624 6.73035 22.5646 6.73035 20.0831C6.73035 17.2012 8.20012 15.0632 10.1659 15.0632C11.7886 15.0632 12.8193 16.2464 12.8193 18.1363C12.8193 18.7473 12.7426 19.3579 12.5707 20.2167H8.65816C8.63919 20.3502 8.63919 20.4075 8.63919 20.4838C8.63919 21.4576 9.23081 21.9536 10.3757 21.9536C11.082 21.9536 11.7119 21.7817 12.4182 21.4193L12.0937 23.5186ZM10.9867 18.4987C10.9867 18.3272 11.0057 18.1746 11.0057 18.079C11.0057 17.3917 10.6623 16.991 10.0706 16.991C9.44067 16.991 9.0016 17.5253 8.81072 18.4987H10.9867Z" fill="#E2E8F0"/>
<path fill-rule="evenodd" clip-rule="evenodd" d="M35.5326 23.5186C34.8647 23.7478 34.2158 23.8624 33.5095 23.8624C31.2956 23.8624 30.1499 22.5646 30.1499 20.0831C30.1499 17.2012 31.6197 15.0632 33.5858 15.0632C35.2081 15.0632 36.2582 16.2464 36.2582 18.1363C36.2582 18.7473 36.1819 19.3579 36.01 20.2167H32.0971C32.0777 20.3502 32.0777 20.4075 32.0777 20.4838C32.0777 21.4576 32.6697 21.9536 33.815 21.9536C34.5213 21.9536 35.1512 21.7817 35.8571 21.4193L35.5326 23.5186ZM34.4256 18.4987C34.4446 18.3272 34.4446 18.1746 34.4446 18.079C34.4446 17.3917 34.1012 16.991 33.5095 16.991C32.8796 16.991 32.4405 17.5253 32.2496 18.4987H34.4256Z" fill="#E2E8F0"/>
<path fill-rule="evenodd" clip-rule="evenodd" d="M63.0184 23.5186C62.3311 23.7478 61.6822 23.8624 60.9949 23.8624C58.8 23.8624 57.6357 22.5646 57.6357 20.0831C57.6357 17.2012 59.1054 15.0632 61.0906 15.0632C62.7129 15.0632 63.7432 16.2464 63.7432 18.1363C63.7432 18.7473 63.6673 19.3579 63.4954 20.2167H59.5825C59.5635 20.3502 59.5635 20.4075 59.5635 20.4838C59.5635 21.4576 60.1551 21.9536 61.3004 21.9536C62.0067 21.9536 62.6366 21.7817 63.3428 21.4193L63.0184 23.5186ZM61.911 18.4987C61.911 18.3272 61.93 18.1746 61.93 18.079C61.93 17.3917 61.5866 16.991 60.9949 16.991C60.365 16.991 59.9263 17.5253 59.7354 18.4987H61.911Z" fill="#E2E8F0"/>
<path fill-rule="evenodd" clip-rule="evenodd" d="M6.25298 15.5215C5.87121 15.2544 5.33689 15.0445 4.61168 15.0445C3.80982 15.0445 3.17987 15.216 3.17987 16.0559C3.17987 17.545 6.08145 16.9913 6.08145 20.198C6.08145 23.1182 4.17261 23.8817 2.43568 23.8817C1.67215 23.8817 0.775029 23.6335 0.126099 23.3284L0.603124 21.1904C1.00424 21.5532 1.78675 21.8013 2.45466 21.8013C3.08461 21.8013 4.03903 21.6294 4.03903 20.5414C4.03903 18.8428 1.13782 19.4724 1.13782 16.4949C1.13782 13.7656 2.83642 12.9638 4.4781 12.9638C5.39419 12.9638 6.27233 13.0977 6.76833 13.4412L6.25298 15.5215Z" fill="#E2E8F0"/>
<path fill-rule="evenodd" clip-rule="evenodd" d="M17.8582 23.5189C17.4571 23.7097 16.9038 23.8437 16.1019 23.8437C14.3843 23.8437 13.3153 22.1257 13.3153 20.026C13.3153 17.2777 14.8614 15.1017 17.1326 15.1017C17.629 15.1017 18.3925 15.3116 18.9841 15.655L18.5455 17.6591C18.1254 17.373 17.6863 17.2015 17.2282 17.2015C16.1786 17.2015 15.415 18.1749 15.415 19.8924C15.415 20.8852 15.9687 21.7056 16.8275 21.7056C17.3428 21.7056 17.7053 21.5914 18.1443 21.3432L17.8582 23.5189Z" fill="#E2E8F0"/>
<path fill-rule="evenodd" clip-rule="evenodd" d="M25.2256 21.4004C25.1304 22.126 25.0348 22.8322 24.9775 23.5764H23.088L23.2405 22.2216H23.2215C22.6299 23.1377 22.0193 23.7676 20.9309 23.7676C19.7477 23.7676 19.0988 22.5077 19.0988 20.8854C19.0988 20.3128 19.1367 20.0073 19.2513 19.1291L19.786 15.2355H21.9047L21.3321 19.1485C21.2748 19.5682 21.1985 19.9883 21.1985 20.427C21.1985 20.9234 21.4273 21.4197 22 21.3814C22.8591 21.3814 23.3741 20.3317 23.527 19.0912L24.1187 15.2355H26.1611L25.2256 21.4004Z" fill="#E2E8F0"/>
<path fill-rule="evenodd" clip-rule="evenodd" d="M64.9842 23.4808H64.6597V22.0873H64.2017V21.7818H65.4422V22.0873H64.9842V23.4808Z" fill="#E2E8F0"/>
<path fill-rule="evenodd" clip-rule="evenodd" d="M67.1028 23.4808H66.7973V22.0683L66.5112 23.4808H66.2057L65.9196 22.0683V23.4808H65.6141V21.7818H66.0911L66.3586 23.118H66.3776L66.6448 21.7818H67.1028V23.4808Z" fill="#E2E8F0"/>
</g>
<defs>
<clipPath id="clip0">
<rect width="66.9767" height="24" fill="white" transform="translate(0.126099)"/>
</clipPath>
</defs>
</svg>
