<svg width="49" height="24" viewBox="0 0 49 24" fill="none" xmlns="http://www.w3.org/2000/svg">
<g clip-path="url(#clip0)">
<path d="M32.9287 13.654L33.4004 13.7955C33.3689 13.9291 33.3218 14.0392 33.251 14.1257C33.1803 14.2122 33.1017 14.2829 32.9995 14.3222C32.8973 14.3694 32.7715 14.393 32.6143 14.393C32.4256 14.393 32.2762 14.3694 32.1504 14.3144C32.0325 14.2593 31.9303 14.165 31.8438 14.0235C31.7574 13.8898 31.7102 13.709 31.7102 13.4968C31.7102 13.2137 31.7888 12.9936 31.9382 12.8364C32.0875 12.6792 32.3077 12.6084 32.5828 12.6084C32.8029 12.6084 32.968 12.6556 33.0938 12.742C33.2196 12.8285 33.3139 12.9622 33.3689 13.1508L32.8973 13.253C32.8815 13.198 32.8658 13.1587 32.8422 13.1351C32.8108 13.0958 32.7793 13.0644 32.7322 13.0408C32.685 13.0172 32.6378 13.0093 32.5907 13.0093C32.4728 13.0093 32.3784 13.0565 32.3155 13.1587C32.2684 13.2295 32.2448 13.3474 32.2448 13.4968C32.2448 13.6854 32.2762 13.8191 32.3313 13.8898C32.3863 13.9606 32.4728 13.9999 32.575 13.9999C32.6772 13.9999 32.7558 13.9684 32.8029 13.9134C32.8658 13.8427 32.9051 13.764 32.9287 13.654Z" fill="#94A3B8"/>
<path d="M33.589 13.4958C33.589 13.2128 33.6676 12.9927 33.8248 12.8355C33.9821 12.6782 34.2022 12.5996 34.4852 12.5996C34.7761 12.5996 34.9962 12.6782 35.1534 12.8276C35.3107 12.9848 35.3893 13.1971 35.3893 13.4801C35.3893 13.6845 35.3578 13.8496 35.2871 13.9754C35.2163 14.1012 35.122 14.2034 34.9883 14.2741C34.8626 14.3449 34.6975 14.3842 34.5088 14.3842C34.3122 14.3842 34.155 14.3527 34.0214 14.2898C33.8956 14.2269 33.7934 14.1326 33.7069 13.9911C33.6204 13.8496 33.589 13.7002 33.589 13.4958ZM34.1236 13.4958C34.1236 13.6688 34.155 13.7946 34.2179 13.8732C34.2808 13.9518 34.3673 13.9911 34.4852 13.9911C34.6031 13.9911 34.6896 13.9518 34.7525 13.881C34.8154 13.8024 34.8468 13.6688 34.8468 13.4801C34.8468 13.315 34.8154 13.1971 34.7446 13.1263C34.6817 13.0477 34.5874 13.0163 34.4773 13.0163C34.3673 13.0163 34.2808 13.0556 34.2179 13.1342C34.155 13.1971 34.1236 13.3229 34.1236 13.4958Z" fill="#94A3B8"/>
<path d="M35.6646 12.6299H36.3643L36.6316 13.6833L36.8988 12.6299H37.5985V14.3594H37.1583V13.0387L36.8202 14.3594H36.4272L36.0891 13.0387V14.3594H35.6489V12.6299H35.6646Z" fill="#94A3B8"/>
<path d="M37.9444 12.6299H38.8327C39.0293 12.6299 39.1708 12.6771 39.2651 12.7714C39.3594 12.8657 39.4066 12.9915 39.4066 13.1645C39.4066 13.3374 39.3516 13.4789 39.2494 13.5732C39.1472 13.6754 38.9821 13.7226 38.7698 13.7226H38.479V14.3672H37.9444V12.6299ZM38.479 13.3689H38.6126C38.7148 13.3689 38.7856 13.3531 38.8327 13.3138C38.872 13.2745 38.8956 13.2352 38.8956 13.1802C38.8956 13.1252 38.8799 13.078 38.8406 13.0387C38.8013 12.9994 38.7384 12.9836 38.6362 12.9836H38.4868V13.3689H38.479Z" fill="#94A3B8"/>
<path d="M39.6896 12.6299H40.2242V13.9349H41.0575V14.3594H39.6896V12.6299Z" fill="#94A3B8"/>
<path d="M41.3247 12.6299H41.8593V14.3594H41.3247V12.6299Z" fill="#94A3B8"/>
<path d="M43.3059 14.0686H42.7006L42.6141 14.3516H42.0717L42.7242 12.6221H43.3059L43.9584 14.3516H43.4003L43.3059 14.0686ZM43.1959 13.6991L43.0072 13.078L42.8185 13.6991H43.1959Z" fill="#94A3B8"/>
<path d="M44.1235 12.6299H44.6188L45.2713 13.589V12.6299H45.7745V14.3594H45.2713L44.6267 13.4082V14.3594H44.1235V12.6299Z" fill="#94A3B8"/>
<path d="M46.0103 12.6299H47.6376V13.0544H47.0952V14.3594H46.5606V13.0544H46.0182V12.6299H46.0103Z" fill="#94A3B8"/>
<path d="M26.498 15.2644L28.0467 14.777L27.5435 13.6607C27.1741 14.1245 26.8046 14.722 26.498 15.2644ZM25.9712 10.1623L22.9367 3.40137L0.720032 4.65921L6.8756 21.4515L18.7229 17.7172C17.9682 16.6323 17.6931 15.343 18.5657 14.7141C19.5405 14.0066 21.0106 14.8242 21.9461 15.9798C22.8502 14.4704 25.3895 10.9563 25.9712 10.1623Z" fill="#94A3B8"/>
<path d="M22.2445 8.28836C23.1721 8.28836 23.9269 7.58083 23.9269 6.70033C23.9269 5.81984 23.1721 5.1123 22.2445 5.1123C21.3168 5.1123 20.5621 5.81984 20.5621 6.70033C20.5621 7.57296 21.3168 8.28836 22.2445 8.28836ZM20.8687 8.97232H23.6203V16.1656H20.8687V8.97232Z" fill="#FEFEFE"/>
<path d="M19.5087 11.0707C19.5323 11.0786 19.548 11.0707 19.548 11.0471V9.22327C19.548 9.19968 19.5323 9.1761 19.5087 9.16038C19.5087 9.16038 19.1471 8.92453 18.0465 8.86164C17.9914 8.83019 17.0245 8.82233 16.765 8.86164C12.7556 9.18396 12.6063 12.0849 12.6063 12.2107V12.9182C12.6063 13.0047 12.6063 15.9685 16.765 16.2279C17.1738 16.2594 17.9678 16.2279 18.0465 16.2279C19.0056 16.2279 19.6659 15.937 19.6659 15.937C19.6895 15.9292 19.7052 15.9056 19.7052 15.882V14.176C19.7052 14.1525 19.6895 14.1446 19.6738 14.1603C19.6738 14.1603 19.3751 14.3962 18.07 14.5298C17.7006 14.5691 17.5197 14.5534 17.3861 14.5298C15.5308 14.2154 15.4443 12.8632 15.4443 12.8632C15.4443 12.8396 15.4364 12.8003 15.4364 12.7846V12.2657C15.4364 12.2421 15.4364 12.2028 15.4443 12.1871C15.4443 12.1871 15.5701 10.7327 17.3861 10.5755H18.07C18.8641 10.6777 19.5087 11.0707 19.5087 11.0707Z" fill="#FEFEFE"/>
<path d="M4.9649 16.1425C4.9649 16.1661 4.98063 16.1818 5.00421 16.1818H7.685C7.70858 16.1818 7.7243 16.1661 7.7243 16.1425V14.0513C7.7243 14.0277 7.74003 14.012 7.76361 14.012C7.76361 14.012 12.0481 14.3186 12.0481 11.4491C12.0481 9.17716 9.3595 8.93345 8.47901 8.97276C8.46329 8.97276 5.00421 8.97276 5.00421 8.97276C4.98063 8.97276 4.9649 8.98848 4.9649 9.01207V16.1425ZM7.67713 12.4161V10.5372H8.3375C8.3375 10.5372 9.28875 10.5765 9.36736 11.229C9.38309 11.2762 9.38309 11.5985 9.36736 11.6142C9.24158 12.3768 8.41612 12.4161 8.41612 12.4161H7.67713Z" fill="#FEFEFE"/>
<path d="M22.3235 19.6367C22.5436 19.6367 22.7166 19.6367 22.9996 19.5109C23.9744 18.9999 27.2684 10.9576 30.7432 8.48118C30.7668 8.46546 30.7903 8.44188 30.8061 8.41829C30.8297 8.38685 30.8297 8.3554 30.8297 8.3554C30.8297 8.3554 30.8297 8.19031 30.3187 8.19031C27.2291 8.10383 24.0137 14.5896 22.3235 17.1525C22.2999 17.1839 22.1898 17.1525 22.1898 17.1525C22.1898 17.1525 21.0578 15.816 20.0751 15.305C20.0515 15.2971 19.9414 15.2578 19.8235 15.2657C19.7449 15.2657 19.2889 15.36 19.0767 15.5801C18.8251 15.8474 18.833 15.9968 18.833 16.3191C18.833 16.3427 18.8487 16.4528 18.8801 16.5078C19.1239 16.9323 20.2166 18.4417 21.1207 19.2751C21.2543 19.3773 21.4666 19.6367 22.3235 19.6367Z" fill="#E2E8F0"/>
<path d="M31.655 6.05176H34.2257C34.7367 6.05176 35.1455 6.12251 35.4521 6.25616C35.7666 6.39767 36.026 6.59421 36.2225 6.84578C36.4269 7.10521 36.5763 7.40395 36.6628 7.74199C36.7571 8.08004 36.8043 8.44167 36.8043 8.82689C36.8043 9.42436 36.7335 9.8882 36.5999 10.2184C36.4663 10.5486 36.2776 10.8237 36.0339 11.0517C35.7902 11.2718 35.5307 11.4212 35.2556 11.4998C34.8782 11.602 34.5323 11.6492 34.2257 11.6492H31.655V6.05176ZM33.3846 7.31747V10.3756H33.8091C34.1707 10.3756 34.4301 10.3363 34.5795 10.2577C34.7289 10.1791 34.8547 10.0376 34.9411 9.84103C35.0276 9.64449 35.0748 9.3143 35.0748 8.86619C35.0748 8.26872 34.9804 7.86778 34.7839 7.64765C34.5874 7.42753 34.2729 7.31747 33.8169 7.31747H33.3846Z" fill="#94A3B8"/>
<path d="M37.2839 9.80139L38.9348 9.69918C38.9741 9.96648 39.0448 10.1709 39.1549 10.3124C39.3357 10.5404 39.5873 10.6504 39.9175 10.6504C40.1612 10.6504 40.3577 10.5954 40.4914 10.4775C40.625 10.3596 40.6958 10.2259 40.6958 10.0765C40.6958 9.93503 40.6329 9.80139 40.5071 9.68346C40.3813 9.56554 40.0826 9.46334 39.6187 9.36114C38.8562 9.18818 38.3216 8.9602 37.9914 8.67718C37.6612 8.39416 37.504 8.03253 37.504 7.59229C37.504 7.30141 37.5905 7.03412 37.7556 6.77468C37.9207 6.51525 38.1722 6.31871 38.5103 6.16934C38.8483 6.01997 39.3043 5.94922 39.886 5.94922C40.6014 5.94922 41.1517 6.08287 41.5212 6.35016C41.8986 6.61745 42.1187 7.04198 42.1894 7.62373L40.5542 7.71807C40.5071 7.4665 40.4206 7.28569 40.2791 7.16776C40.1376 7.04984 39.9489 6.99481 39.7052 6.99481C39.5008 6.99481 39.3514 7.03412 39.2492 7.12059C39.147 7.20707 39.0999 7.30927 39.0999 7.43505C39.0999 7.52153 39.1392 7.60801 39.2257 7.67876C39.3043 7.74952 39.5008 7.82027 39.8074 7.88316C40.5621 8.04826 41.1046 8.21335 41.4347 8.37844C41.7649 8.54353 42.0008 8.7558 42.1501 8.99951C42.2995 9.24321 42.3702 9.52623 42.3702 9.83283C42.3702 10.1945 42.268 10.5246 42.0715 10.8234C41.875 11.13 41.592 11.358 41.2382 11.5152C40.8844 11.6724 40.4285 11.7511 39.886 11.7511C38.9348 11.7511 38.2744 11.5702 37.9049 11.2007C37.5433 10.8312 37.3389 10.3674 37.2839 9.80139Z" fill="#94A3B8"/>
<path d="M42.8107 9.80139L44.4617 9.69918C44.501 9.96648 44.5717 10.1709 44.6818 10.3124C44.8626 10.5404 45.1142 10.6504 45.4443 10.6504C45.6881 10.6504 45.8846 10.5954 46.0182 10.4775C46.1519 10.3596 46.2226 10.2259 46.2226 10.0765C46.2226 9.93503 46.1597 9.80139 46.034 9.68346C45.9082 9.56554 45.6094 9.46334 45.1456 9.36114C44.383 9.18818 43.8485 8.9602 43.5183 8.67718C43.1959 8.39416 43.0309 8.03253 43.0309 7.59229C43.0309 7.30141 43.1173 7.03412 43.2824 6.77468C43.4475 6.51525 43.6991 6.31871 44.0371 6.16934C44.3752 6.01997 44.8311 5.94922 45.4129 5.94922C46.1283 5.94922 46.6786 6.08287 47.0481 6.35016C47.4254 6.61745 47.6456 7.04198 47.7163 7.62373L46.0811 7.71807C46.034 7.4665 45.9475 7.28569 45.806 7.16776C45.6645 7.04984 45.4758 6.99481 45.2321 6.99481C45.0277 6.99481 44.8783 7.03412 44.7761 7.12059C44.6739 7.20707 44.6267 7.30927 44.6267 7.43505C44.6267 7.52153 44.6661 7.60801 44.7525 7.67876C44.8311 7.74952 45.0277 7.82027 45.3343 7.88316C46.089 8.04826 46.6314 8.21335 46.9616 8.37844C47.2918 8.54353 47.5276 8.7558 47.677 8.99951C47.8264 9.24321 47.8971 9.52623 47.8971 9.83283C47.8971 10.1945 47.7949 10.5246 47.5984 10.8234C47.4019 11.13 47.1188 11.358 46.7651 11.5152C46.4113 11.6724 45.9553 11.7511 45.4129 11.7511C44.4617 11.7511 43.8013 11.5702 43.4318 11.2007C43.0623 10.8312 42.8579 10.3674 42.8107 9.80139Z" fill="#94A3B8"/>
</g>
<defs>
<clipPath id="clip0">
<rect width="48" height="24" fill="white" transform="translate(0.102783)"/>
</clipPath>
</defs>
</svg>
