<svg width="57" height="24" viewBox="0 0 57 24" fill="none" xmlns="http://www.w3.org/2000/svg">
<g clip-path="url(#clip0)">
<path d="M23.2932 12.7906L20.5389 20.2183L20.2452 18.7089C19.5592 16.8585 18.0743 14.9171 16.3447 14.1302L18.8646 23.6678L21.8432 23.6664L26.2725 12.7906H23.2932Z" fill="#94A3B8"/>
<path d="M25.6539 23.6785L27.4148 12.78H30.2286L28.467 23.6785H25.6539Z" fill="#94A3B8"/>
<path d="M38.6752 13.0488C38.1194 12.8289 37.2418 12.59 36.1537 12.59C33.37 12.59 31.4142 14.0697 31.3971 16.1861C31.3792 17.7536 32.7955 18.6281 33.8601 19.1488C34.9589 19.6817 35.3259 20.0236 35.3227 20.5006C35.312 21.2309 34.4434 21.5635 33.6363 21.5635C32.5115 21.5635 31.9124 21.3994 30.99 20.9939L30.6245 20.8203L30.2307 23.2591C30.8894 23.5627 32.1044 23.8259 33.3677 23.8395C36.322 23.8395 38.2438 22.3768 38.2666 20.1177C38.2785 18.8743 37.5269 17.9332 35.9016 17.1561C34.9208 16.6512 34.3141 16.3163 34.3231 15.8041C34.3242 15.3519 34.832 14.8671 35.9357 14.8671C36.857 14.8519 37.5197 15.0633 38.0413 15.2862L38.2923 15.4113L38.6752 13.0488Z" fill="#94A3B8"/>
<path d="M45.8922 12.7914H43.7183C43.0443 12.7914 42.5394 12.9834 42.2416 13.6959L38.0645 23.682H41.0199C41.0199 23.682 41.5034 22.3381 41.6124 22.0433C41.9348 22.0433 44.8056 22.0501 45.215 22.0501C45.302 22.4299 45.5577 23.682 45.5577 23.682H48.1708L45.8922 12.7914ZM42.422 19.8142C42.6557 19.1888 43.5431 16.7679 43.5431 16.7679C43.526 16.7976 43.7739 16.1376 43.9173 15.7296L44.1049 16.6691C44.1049 16.6691 44.6454 19.2698 44.7581 19.8142C44.3201 19.8142 42.9709 19.8142 42.422 19.8142Z" fill="#94A3B8"/>
<path d="M17.984 12.7854H13.4458L13.4193 12.9729C16.9479 13.8754 19.2761 16.0915 20.2453 18.7123L19.2589 13.7034C19.0894 13.0144 18.5956 12.8096 17.984 12.7854Z" fill="#E2E8F0"/>
<path d="M4.93315 10.1517H3.13869L1.06885 0.820679L3.05205 0.489276L4.46824 7.79149L8.07582 0.585855H9.98075L4.93315 10.1517Z" fill="#94A3B8"/>
<path d="M14.265 7.10099H9.98579C9.86868 8.39847 10.4717 8.96458 11.4934 8.96458C12.3493 8.96458 13.1021 8.64685 13.9123 8.1362L13.9059 9.43356C13.1115 9.93065 12.193 10.2483 11.1162 10.2483C9.25287 10.2483 8.02236 9.18518 8.39205 6.78327C8.72547 4.61616 10.2249 3.30503 11.9641 3.30503C13.9657 3.30503 14.6313 4.80966 14.3403 6.70069C14.3192 6.83861 14.2798 7.00442 14.265 7.10099ZM11.7465 4.4507C11.0838 4.4507 10.4648 4.97503 10.1727 6.06579H12.8228C12.8718 5.03037 12.5471 4.4507 11.7465 4.4507Z" fill="#94A3B8"/>
<path d="M17.0541 6.28653L16.4656 10.11H14.8092L15.8354 3.44284H17.2433L17.2443 4.7819C17.8051 4.00884 18.5675 3.36018 19.6112 3.30495L19.6207 4.94747C18.5749 5.01661 17.634 5.56873 17.0541 6.28653Z" fill="#94A3B8"/>
<path d="M19.5989 10.11L20.6251 3.44285H22.2815L21.2554 10.11H19.5989ZM21.6393 2.32474C21.0873 2.32474 20.705 1.93833 20.79 1.38622C20.8772 0.820224 21.3804 0.419916 21.9324 0.419916C22.471 0.419916 22.851 0.820224 22.7638 1.38622C22.6789 1.93833 22.1778 2.32474 21.6393 2.32474Z" fill="#94A3B8"/>
<path d="M26.8688 1.62081C26.3026 1.62081 25.9609 1.8692 25.8694 2.46289L25.7186 3.44285H26.9886L26.9874 4.79555H25.5106L24.6925 10.11H23.0499L23.8679 4.79555H22.9016L23.1098 3.44285H24.0761L24.2524 2.29718C24.4798 0.820225 25.5034 0.268109 26.8699 0.268109C27.1598 0.268109 27.3764 0.29578 27.5379 0.323338L27.5505 1.67607C27.389 1.64851 27.1447 1.62081 26.8688 1.62081Z" fill="#94A3B8"/>
<path d="M26.8869 10.11L27.9131 3.44285H29.5695L28.5433 10.11H26.8869ZM28.9272 2.32474C28.3751 2.32474 27.9929 1.93833 28.078 1.38622C28.1651 0.820224 28.6682 0.419916 29.2204 0.419916C29.7588 0.419916 30.139 0.820224 30.0519 1.38622C29.9669 1.93833 29.4657 2.32474 28.9272 2.32474Z" fill="#94A3B8"/>
<path d="M35.9915 7.10099H31.7123C31.5955 8.39847 32.1984 8.96458 33.22 8.96458C34.0759 8.96458 34.8286 8.64685 35.6391 8.1362L35.6324 9.43356C34.8381 9.93065 33.9194 10.2483 32.8429 10.2483C30.9793 10.2483 29.749 9.18518 30.1185 6.78327C30.4522 4.61616 31.9514 3.30503 33.6907 3.30503C35.6923 3.30503 36.3582 4.80966 36.067 6.70069C36.0456 6.83861 36.0063 7.00442 35.9915 7.10099ZM33.473 4.4507C32.8102 4.4507 32.1912 4.97503 31.8994 6.06579H34.5495C34.5984 5.03037 34.2737 4.4507 33.473 4.4507Z" fill="#94A3B8"/>
<path d="M40.8979 10.1101L40.902 9.18518C40.3456 9.75129 39.6204 10.2483 38.6957 10.2483C37.3011 10.2483 36.3429 9.21285 36.689 6.96275C37.0712 4.47837 38.6078 3.37391 40.1539 3.37391C40.7889 3.37391 41.2828 3.48451 41.6616 3.6223L42.1566 0.406007L43.8534 0.143945L42.3197 10.1101H40.8979ZM41.4514 4.98902C41.0671 4.79564 40.7643 4.69909 40.1985 4.69909C39.3287 4.69909 38.5856 5.40298 38.3606 6.86629C38.1608 8.16376 38.6194 8.77111 39.351 8.77111C39.9585 8.77111 40.4827 8.41246 41.0093 7.86015L41.4514 4.98902Z" fill="#94A3B8"/>
<path d="M47.3941 10.1732C46.6099 10.1732 45.9706 10.0476 45.3755 9.8386L46.465 2.7599L47.75 2.56122L47.2787 5.62472C47.6543 5.29014 48.1763 4.95559 48.8141 4.95559C49.8805 4.95559 50.5948 5.75042 50.3342 7.44412C50.0477 9.30514 48.8997 10.1732 47.3941 10.1732ZM48.3194 6.06375C47.901 6.06375 47.4814 6.34625 47.1096 6.72282L46.7574 9.01248C47.0043 9.10646 47.1755 9.14836 47.5309 9.14836C48.3255 9.14836 48.8806 8.6674 49.0576 7.51722C49.2074 6.54493 48.8841 6.06375 48.3194 6.06375Z" fill="#94A3B8"/>
<path d="M53.29 10.3823C52.649 11.6264 52.0146 12.0133 51.0421 12.0133C50.8224 12.0133 50.7004 11.9924 50.5902 11.9611L50.5821 10.926C50.7432 10.9678 50.9158 10.9992 51.1564 10.9992C51.5224 10.9992 51.8408 10.832 52.0542 10.4661L52.2205 10.1314L51.1566 5.15431L52.4897 4.98715L53.107 8.58388L54.7786 5.06033H56.0229L53.29 10.3823Z" fill="#94A3B8"/>
</g>
<defs>
<clipPath id="clip0">
<rect width="55.2289" height="24" fill="white" transform="translate(0.897156)"/>
</clipPath>
</defs>
</svg>
